<svg width="1920" height="650" viewBox="0 0 1920 650" fill="none" xmlns="http://www.w3.org/2000/svg">
<g opacity="0.2">
<path d="M0 325H62.5C117.728 325 162.5 369.772 162.5 425V487.5H100C44.7715 487.5 0 442.728 0 387.5V325Z" fill="#FEC247"/>
<path d="M325 325H262.5C207.272 325 162.5 369.772 162.5 425V487.5H225C280.228 487.5 325 442.728 325 387.5V325Z" fill="#6B5ACC"/>
<path d="M162.5 487.5H225C280.228 487.5 325 532.272 325 587.5V650H262.5C207.272 650 162.5 605.228 162.5 550V487.5Z" fill="#21C1F3"/>
<path d="M162.5 487.5H100C44.7715 487.5 0 532.272 0 587.5V650H62.5C117.728 650 162.5 605.228 162.5 550V487.5Z" fill="#EE4F3C"/>
<path d="M0 0H62.5C117.728 0 162.5 44.7715 162.5 100V162.5H100C44.7715 162.5 0 117.728 0 62.5V0Z" fill="#FEC247"/>
<path d="M325 0H262.5C207.272 0 162.5 44.7715 162.5 100V162.5H225C280.228 162.5 325 117.728 325 62.5V0Z" fill="#6B5ACC"/>
<path d="M162.5 162.5H225C280.228 162.5 325 207.272 325 262.5V325H262.5C207.272 325 162.5 280.228 162.5 225V162.5Z" fill="#21C1F3"/>
<path d="M162.5 162.5H100C44.7715 162.5 0 207.272 0 262.5V325H62.5C117.728 325 162.5 280.228 162.5 225V162.5Z" fill="#EE4F3C"/>
<path d="M322.287 325H384.787C440.016 325 484.787 369.772 484.787 425V487.5H422.287C367.059 487.5 322.287 442.728 322.287 387.5V325Z" fill="#FEC247"/>
<path d="M647.287 325H584.787C529.559 325 484.787 369.772 484.787 425V487.5H547.287C602.516 487.5 647.287 442.728 647.287 387.5V325Z" fill="#6B5ACC"/>
<path d="M484.787 487.5H547.287C602.516 487.5 647.287 532.272 647.287 587.5V650H584.787C529.559 650 484.787 605.228 484.787 550V487.5Z" fill="#21C1F3"/>
<path d="M484.787 487.5H422.287C367.059 487.5 322.287 532.272 322.287 587.5V650H384.787C440.016 650 484.787 605.228 484.787 550V487.5Z" fill="#EE4F3C"/>
<path d="M322.287 0H384.787C440.016 0 484.787 44.7715 484.787 100V162.5H422.287C367.059 162.5 322.287 117.728 322.287 62.5V0Z" fill="#FEC247"/>
<path d="M647.287 0H584.787C529.559 0 484.787 44.7715 484.787 100V162.5H547.287C602.516 162.5 647.287 117.728 647.287 62.5V0Z" fill="#6B5ACC"/>
<path d="M484.787 162.5H547.287C602.516 162.5 647.287 207.272 647.287 262.5V325H584.787C529.559 325 484.787 280.228 484.787 225V162.5Z" fill="#21C1F3"/>
<path d="M484.787 162.5H422.287C367.059 162.5 322.287 207.272 322.287 262.5V325H384.787C440.016 325 484.787 280.228 484.787 225V162.5Z" fill="#EE4F3C"/>
<path d="M647.83 325H710.33C765.558 325 810.33 369.772 810.33 425V487.5H747.83C692.601 487.5 647.83 442.728 647.83 387.5V325Z" fill="#FEC247"/>
<path d="M972.83 325H910.33C855.101 325 810.33 369.772 810.33 425V487.5H872.83C928.058 487.5 972.83 442.728 972.83 387.5V325Z" fill="#6B5ACC"/>
<path d="M810.33 487.5H872.83C928.058 487.5 972.83 532.272 972.83 587.5V650H910.33C855.101 650 810.33 605.228 810.33 550V487.5Z" fill="#21C1F3"/>
<path d="M810.33 487.5H747.83C692.601 487.5 647.83 532.272 647.83 587.5V650H710.33C765.558 650 810.33 605.228 810.33 550V487.5Z" fill="#EE4F3C"/>
<path d="M647.83 0H710.33C765.558 0 810.33 44.7715 810.33 100V162.5H747.83C692.601 162.5 647.83 117.728 647.83 62.5V0Z" fill="#FEC247"/>
<path d="M972.83 0H910.33C855.101 0 810.33 44.7715 810.33 100V162.5H872.83C928.058 162.5 972.83 117.728 972.83 62.5V0Z" fill="#6B5ACC"/>
<path d="M810.33 162.5H872.83C928.058 162.5 972.83 207.272 972.83 262.5V325H910.33C855.101 325 810.33 280.228 810.33 225V162.5Z" fill="#21C1F3"/>
<path d="M810.33 162.5H747.83C692.601 162.5 647.83 207.272 647.83 262.5V325H710.33C765.558 325 810.33 280.228 810.33 225V162.5Z" fill="#EE4F3C"/>
<path d="M973.372 325H1035.87C1091.1 325 1135.87 369.772 1135.87 425V487.5H1073.37C1018.14 487.5 973.372 442.728 973.372 387.5V325Z" fill="#FEC247"/>
<path d="M1298.37 325H1235.87C1180.64 325 1135.87 369.772 1135.87 425V487.5H1198.37C1253.6 487.5 1298.37 442.728 1298.37 387.5V325Z" fill="#6B5ACC"/>
<path d="M1135.87 487.5H1198.37C1253.6 487.5 1298.37 532.272 1298.37 587.5V650H1235.87C1180.64 650 1135.87 605.228 1135.87 550V487.5Z" fill="#21C1F3"/>
<path d="M1135.87 487.5H1073.37C1018.14 487.5 973.372 532.272 973.372 587.5V650H1035.87C1091.1 650 1135.87 605.228 1135.87 550V487.5Z" fill="#EE4F3C"/>
<path d="M973.372 0H1035.87C1091.1 0 1135.87 44.7715 1135.87 100V162.5H1073.37C1018.14 162.5 973.372 117.728 973.372 62.5V0Z" fill="#FEC247"/>
<path d="M1298.37 0H1235.87C1180.64 0 1135.87 44.7715 1135.87 100V162.5H1198.37C1253.6 162.5 1298.37 117.728 1298.37 62.5V0Z" fill="#6B5ACC"/>
<path d="M1135.87 162.5H1198.37C1253.6 162.5 1298.37 207.272 1298.37 262.5V325H1235.87C1180.64 325 1135.87 280.228 1135.87 225V162.5Z" fill="#21C1F3"/>
<path d="M1135.87 162.5H1073.37C1018.14 162.5 973.372 207.272 973.372 262.5V325H1035.87C1091.1 325 1135.87 280.228 1135.87 225V162.5Z" fill="#EE4F3C"/>
<path d="M1298.91 325H1361.41C1416.64 325 1461.41 369.772 1461.41 425V487.5H1398.91C1343.69 487.5 1298.91 442.728 1298.91 387.5V325Z" fill="#FEC247"/>
<path d="M1623.91 325H1561.41C1506.19 325 1461.41 369.772 1461.41 425V487.5H1523.91C1579.14 487.5 1623.91 442.728 1623.91 387.5V325Z" fill="#6B5ACC"/>
<path d="M1461.41 487.5H1523.91C1579.14 487.5 1623.91 532.272 1623.91 587.5V650H1561.41C1506.19 650 1461.41 605.228 1461.41 550V487.5Z" fill="#21C1F3"/>
<path d="M1461.41 487.5H1398.91C1343.69 487.5 1298.91 532.272 1298.91 587.5V650H1361.41C1416.64 650 1461.41 605.228 1461.41 550V487.5Z" fill="#EE4F3C"/>
<path d="M1298.91 0H1361.41C1416.64 0 1461.41 44.7715 1461.41 100V162.5H1398.91C1343.69 162.5 1298.91 117.728 1298.91 62.5V0Z" fill="#FEC247"/>
<path d="M1623.91 0H1561.41C1506.19 0 1461.41 44.7715 1461.41 100V162.5H1523.91C1579.14 162.5 1623.91 117.728 1623.91 62.5V0Z" fill="#6B5ACC"/>
<path d="M1461.41 162.5H1523.91C1579.14 162.5 1623.91 207.272 1623.91 262.5V325H1561.41C1506.19 325 1461.41 280.228 1461.41 225V162.5Z" fill="#21C1F3"/>
<path d="M1461.41 162.5H1398.91C1343.69 162.5 1298.91 207.272 1298.91 262.5V325H1361.41C1416.64 325 1461.41 280.228 1461.41 225V162.5Z" fill="#EE4F3C"/>
<path d="M1624.46 325H1686.96C1742.19 325 1786.96 369.772 1786.96 425V487.5H1724.46C1669.23 487.5 1624.46 442.728 1624.46 387.5V325Z" fill="#FEC247"/>
<path d="M1949.46 325H1886.96C1831.73 325 1786.96 369.772 1786.96 425V487.5H1849.46C1904.69 487.5 1949.46 442.728 1949.46 387.5V325Z" fill="#6B5ACC"/>
<path d="M1786.96 487.5H1849.46C1904.69 487.5 1949.46 532.272 1949.46 587.5V650H1886.96C1831.73 650 1786.96 605.228 1786.96 550V487.5Z" fill="#21C1F3"/>
<path d="M1786.96 487.5H1724.46C1669.23 487.5 1624.46 532.272 1624.46 587.5V650H1686.96C1742.19 650 1786.96 605.228 1786.96 550V487.5Z" fill="#EE4F3C"/>
<path d="M1624.46 0H1686.96C1742.19 0 1786.96 44.7715 1786.96 100V162.5H1724.46C1669.23 162.5 1624.46 117.728 1624.46 62.5V0Z" fill="#FEC247"/>
<path d="M1949.46 0H1886.96C1831.73 0 1786.96 44.7715 1786.96 100V162.5H1849.46C1904.69 162.5 1949.46 117.728 1949.46 62.5V0Z" fill="#6B5ACC"/>
<path d="M1786.96 162.5H1849.46C1904.69 162.5 1949.46 207.272 1949.46 262.5V325H1886.96C1831.73 325 1786.96 280.228 1786.96 225V162.5Z" fill="#21C1F3"/>
<path d="M1786.96 162.5H1724.46C1669.23 162.5 1624.46 207.272 1624.46 262.5V325H1686.96C1742.19 325 1786.96 280.228 1786.96 225V162.5Z" fill="#EE4F3C"/>
</g>
</svg>
