<svg width="155" height="155" viewBox="0 0 155 155" fill="none" xmlns="http://www.w3.org/2000/svg">
<g filter="url(#filter0_d_1_207)">
<circle cx="77.5" cy="73.5" r="27.5" fill="white"/>
</g>
<path d="M77.4575 85.9537V75.0012C77.7763 75.03 78.0825 75.045 78.405 75.045C79.9338 75.045 81.3725 74.645 82.5925 73.9287V85.9512C82.5925 86.9787 82.3488 87.7375 81.8738 88.2437C81.4013 88.7475 80.7738 89 80.01 89C79.26 89 78.6638 88.7475 78.175 88.2275C77.7025 87.7237 77.4575 86.965 77.4575 85.9537ZM77.4863 59.7075C80.6675 58.5912 84.2888 58.6512 87.01 60.9412C87.5163 61.4025 88.0938 61.9825 88.3238 62.6662C88.5988 63.5312 87.3613 62.575 87.1913 62.4575C86.3038 61.8912 85.4188 61.4162 84.4263 61.09C79.075 59.4837 74.015 62.3862 70.8688 66.8937C69.5538 68.8862 68.6975 70.9837 67.9938 73.29C67.9188 73.5425 67.8575 73.8712 67.7188 74.0925C67.5788 74.3462 67.6588 73.41 67.6588 73.38C67.7638 72.4262 67.9638 71.505 68.21 70.5837C69.6625 65.6712 72.8713 61.5825 77.4875 59.7075H77.4863ZM83.6463 68.5312C83.6463 69.027 83.5486 69.5179 83.3589 69.9759C83.1692 70.4339 82.8911 70.85 82.5406 71.2006C82.19 71.5511 81.7739 71.8292 81.3159 72.0189C80.8579 72.2086 80.367 72.3062 79.8713 72.3062C79.3755 72.3062 78.8846 72.2086 78.4266 72.0189C77.9686 71.8292 77.5525 71.5511 77.2019 71.2006C76.8514 70.85 76.5733 70.4339 76.3836 69.9759C76.1939 69.5179 76.0963 69.027 76.0963 68.5312C76.0963 68.0355 76.1939 67.5446 76.3836 67.0866C76.5733 66.6286 76.8514 66.2124 77.2019 65.8619C77.5525 65.5114 77.9686 65.2333 78.4266 65.0436C78.8846 64.8539 79.3755 64.7562 79.8713 64.7562C80.367 64.7562 80.8579 64.8539 81.3159 65.0436C81.7739 65.2333 82.19 65.5114 82.5406 65.8619C82.8911 66.2124 83.1692 66.6286 83.3589 67.0866C83.5486 67.5446 83.6463 68.0355 83.6463 68.5312Z" fill="#095CF3"/>
<defs>
<filter id="filter0_d_1_207" x="0" y="0" width="155" height="155" filterUnits="userSpaceOnUse" color-interpolation-filters="sRGB">
<feFlood flood-opacity="0" result="BackgroundImageFix"/>
<feColorMatrix in="SourceAlpha" type="matrix" values="0 0 0 0 0 0 0 0 0 0 0 0 0 0 0 0 0 0 127 0" result="hardAlpha"/>
<feOffset dy="4"/>
<feGaussianBlur stdDeviation="25"/>
<feComposite in2="hardAlpha" operator="out"/>
<feColorMatrix type="matrix" values="0 0 0 0 0.6 0 0 0 0 0.6 0 0 0 0 0.6 0 0 0 0.25 0"/>
<feBlend mode="normal" in2="BackgroundImageFix" result="effect1_dropShadow_1_207"/>
<feBlend mode="normal" in="SourceGraphic" in2="effect1_dropShadow_1_207" result="shape"/>
</filter>
</defs>
</svg>
