<svg width="55" height="55" viewBox="0 0 55 55" fill="none" xmlns="http://www.w3.org/2000/svg">
<circle cx="27.5" cy="27.5" r="27.5" fill="white"/>
<g clip-path="url(#clip0_1_156)">
<path fill-rule="evenodd" clip-rule="evenodd" d="M18.31 31.9051C18.3104 32.318 18.2293 32.7268 18.0714 33.1083C17.9135 33.4898 17.6819 33.8364 17.3899 34.1283C17.0979 34.4202 16.7512 34.6517 16.3696 34.8094C15.9881 34.9671 15.5792 35.0481 15.1663 35.0476C14.7536 35.0477 14.345 34.9666 13.9637 34.8087C13.5824 34.6508 13.236 34.4193 12.9443 34.1274C12.6525 33.8356 12.4212 33.4891 12.2634 33.1078C12.1057 32.7264 12.0247 32.3177 12.025 31.9051C12.0247 31.4923 12.1058 31.0835 12.2636 30.7021C12.4214 30.3207 12.6528 29.9741 12.9447 29.6823C13.2366 29.3904 13.5831 29.1589 13.9646 29.0011C14.346 28.8433 14.7548 28.7622 15.1675 28.7626H18.3113V31.9051H18.31ZM19.8813 31.9051C19.8809 31.4923 19.962 31.0835 20.1198 30.7021C20.2776 30.3207 20.5091 29.9741 20.801 29.6823C21.0928 29.3904 21.4394 29.1589 21.8208 29.0011C22.2022 28.8433 22.611 28.7622 23.0238 28.7626C23.4365 28.7622 23.8453 28.8433 24.2267 29.0011C24.6082 29.1589 24.9547 29.3904 25.2466 29.6823C25.5385 29.9741 25.7699 30.3207 25.9277 30.7021C26.0855 31.0835 26.1666 31.4923 26.1663 31.9051V39.7626C26.1666 40.1753 26.0855 40.5841 25.9277 40.9655C25.7699 41.347 25.5385 41.6935 25.2466 41.9854C24.9547 42.2773 24.6082 42.5087 24.2267 42.6665C23.8453 42.8243 23.4365 42.9054 23.0238 42.9051C22.611 42.9054 22.2022 42.8243 21.8208 42.6665C21.4394 42.5087 21.0928 42.2773 20.801 41.9854C20.5091 41.6935 20.2776 41.347 20.1198 40.9655C19.962 40.5841 19.8809 40.1753 19.8813 39.7626V31.9051Z" fill="#E01E5A"/>
<path fill-rule="evenodd" clip-rule="evenodd" d="M23.0238 19.2863C22.6109 19.2866 22.202 19.2055 21.8205 19.0476C21.439 18.8897 21.0924 18.6581 20.8005 18.3661C20.5086 18.0741 20.2772 17.7274 20.1194 17.3459C19.9617 16.9643 19.8808 16.5554 19.8813 16.1425C19.8809 15.7297 19.962 15.3209 20.1198 14.9395C20.2776 14.5581 20.5091 14.2116 20.8009 13.9197C21.0928 13.6278 21.4394 13.3963 21.8208 13.2385C22.2022 13.0807 22.611 12.9997 23.0238 13C23.4365 12.9997 23.8453 13.0807 24.2267 13.2385C24.6081 13.3963 24.9547 13.6278 25.2466 13.9197C25.5384 14.2116 25.7699 14.5581 25.9277 14.9395C26.0855 15.3209 26.1666 15.7297 26.1663 16.1425V19.2875H23.025L23.0238 19.2863ZM23.0238 20.8813C23.4365 20.8809 23.8453 20.962 24.2267 21.1198C24.6081 21.2776 24.9547 21.5091 25.2466 21.8009C25.5384 22.0928 25.7699 22.4394 25.9277 22.8208C26.0855 23.2022 26.1666 23.611 26.1663 24.0238C26.1666 24.4365 26.0855 24.8453 25.9277 25.2267C25.7699 25.6081 25.5384 25.9547 25.2466 26.2466C24.9547 26.5384 24.6081 26.7699 24.2267 26.9277C23.8453 27.0855 23.4365 27.1666 23.0238 27.1663H15.1425C14.7298 27.1666 14.3212 27.0856 13.9398 26.9278C13.5585 26.7701 13.212 26.5388 12.9201 26.247C12.6283 25.9553 12.3968 25.6089 12.2389 25.2276C12.081 24.8463 11.9998 24.4377 12 24.025C11.9997 23.6122 12.0807 23.2034 12.2385 22.822C12.3963 22.4406 12.6278 22.0941 12.9197 21.8022C13.2116 21.5103 13.5581 21.2788 13.9395 21.121C14.3209 20.9632 14.7297 20.8822 15.1425 20.8825H23.025L23.0238 20.8813Z" fill="#36C5F0"/>
<path fill-rule="evenodd" clip-rule="evenodd" d="M35.6187 24.0238C35.6184 23.6109 35.6995 23.202 35.8574 22.8205C36.0153 22.439 36.2468 22.0924 36.5389 21.8005C36.8309 21.5086 37.1776 21.2772 37.5591 21.1194C37.9407 20.9617 38.3496 20.8808 38.7625 20.8813C39.1753 20.8809 39.584 20.962 39.9655 21.1198C40.3469 21.2776 40.6934 21.5091 40.9853 21.8009C41.2772 22.0928 41.5086 22.4394 41.6664 22.8208C41.8243 23.2022 41.9053 23.611 41.905 24.0238C41.9053 24.4365 41.8243 24.8453 41.6664 25.2267C41.5086 25.6081 41.2772 25.9547 40.9853 26.2466C40.6934 26.5384 40.3469 26.7699 39.9655 26.9277C39.584 27.0855 39.1753 27.1666 38.7625 27.1663H35.6187V24.025V24.0238ZM34.0475 24.0238C34.0478 24.4365 33.9668 24.8453 33.8089 25.2267C33.6511 25.6081 33.4197 25.9547 33.1278 26.2466C32.8359 26.5384 32.4894 26.7699 32.108 26.9277C31.7265 27.0855 31.3178 27.1666 30.905 27.1663C30.4921 27.1667 30.0832 27.0858 29.7016 26.9281C29.3201 26.7703 28.9734 26.5389 28.6814 26.247C28.3894 25.9551 28.1578 25.6085 27.9999 25.227C27.842 24.8455 27.7609 24.4366 27.7612 24.0238V16.1425C27.7609 15.7296 27.842 15.3207 27.9999 14.9392C28.1578 14.5577 28.3894 14.2111 28.6814 13.9192C28.9734 13.6274 29.3201 13.3959 29.7016 13.2382C30.0832 13.0804 30.4921 12.9995 30.905 13C31.3178 12.9997 31.7265 13.0807 32.108 13.2385C32.4894 13.3964 32.8359 13.6278 33.1278 13.9197C33.4197 14.2116 33.6511 14.5581 33.8089 14.9395C33.9668 15.3209 34.0478 15.7297 34.0475 16.1425V24.025V24.0238Z" fill="#2EB67D"/>
<path fill-rule="evenodd" clip-rule="evenodd" d="M30.905 36.6188C31.3178 36.6185 31.7266 36.6996 32.108 36.8574C32.4894 37.0152 32.836 37.2466 33.1278 37.5385C33.4197 37.8304 33.6512 38.1769 33.809 38.5584C33.9668 38.9398 34.0478 39.3486 34.0475 39.7613C34.048 40.1742 33.9671 40.5831 33.8093 40.9647C33.6516 41.3462 33.4202 41.6929 33.1283 41.985C32.8364 42.277 32.4898 42.5085 32.1083 42.6664C31.7268 42.8243 31.3179 42.9054 30.905 42.9051C30.4921 42.9054 30.0832 42.8243 29.7018 42.6664C29.3203 42.5085 28.9736 42.277 28.6818 41.985C28.3899 41.6929 28.1584 41.3462 28.0007 40.9647C27.843 40.5831 27.762 40.1742 27.7625 39.7613V36.6188H30.905ZM30.905 35.0476C30.4922 35.0479 30.0835 34.9668 29.702 34.809C29.3206 34.6512 28.9741 34.4198 28.6822 34.1279C28.3903 33.836 28.1589 33.4895 28.0011 33.108C27.8432 32.7266 27.7622 32.3178 27.7625 31.9051C27.7622 31.4923 27.8432 31.0835 28.0011 30.7021C28.1589 30.3207 28.3903 29.9741 28.6822 29.6823C28.9741 29.3904 29.3206 29.1589 29.702 29.0011C30.0835 28.8433 30.4922 28.7622 30.905 28.7626H38.7863C39.199 28.7622 39.6078 28.8433 39.9892 29.0011C40.3706 29.1589 40.7172 29.3904 41.0091 29.6823C41.301 29.9741 41.5324 30.3207 41.6902 30.7021C41.848 31.0835 41.9291 31.4923 41.9288 31.9051C41.9291 32.3178 41.848 32.7266 41.6902 33.108C41.5324 33.4895 41.301 33.836 41.0091 34.1279C40.7172 34.4198 40.3706 34.6512 39.9892 34.809C39.6078 34.9668 39.199 35.0479 38.7863 35.0476H30.905Z" fill="#ECB22E"/>
</g>
<defs>
<clipPath id="clip0_1_156">
<rect width="30" height="30" fill="white" transform="translate(12 13)"/>
</clipPath>
</defs>
</svg>
