<svg width="50" height="50" viewBox="0 0 50 50" fill="none" xmlns="http://www.w3.org/2000/svg">
<path d="M9.54795 36.0857C7.40211 33.8066 6.25003 31.2503 6.25003 27.1066C6.25003 19.8149 11.3688 13.2795 18.8125 10.0482L20.6729 12.9191C13.725 16.6774 12.3667 21.5545 11.825 24.6295C12.9438 24.0503 14.4084 23.8482 15.8438 23.9816C19.6021 24.3295 22.5646 27.4149 22.5646 31.2503C22.5646 33.1842 21.7964 35.0388 20.4289 36.4063C19.0615 37.7737 17.2068 38.542 15.2729 38.542C14.2035 38.5326 13.1466 38.3106 12.1637 37.889C11.1808 37.4673 10.2917 36.8543 9.54795 36.0857ZM30.3813 36.0857C28.2354 33.8066 27.0834 31.2503 27.0834 27.1066C27.0834 19.8149 32.2021 13.2795 39.6459 10.0482L41.5063 12.9191C34.5584 16.6774 33.2 21.5545 32.6584 24.6295C33.7771 24.0503 35.2417 23.8482 36.6771 23.9816C40.4354 24.3295 43.3979 27.4149 43.3979 31.2503C43.3979 33.1842 42.6297 35.0388 41.2623 36.4063C39.8948 37.7737 38.0401 38.542 36.1063 38.542C35.0368 38.5326 33.9799 38.3106 32.997 37.889C32.0142 37.4673 31.125 36.8543 30.3813 36.0857Z" fill="#ECE1E0"/>
</svg>
