<svg width="202" height="174" viewBox="0 0 202 174" fill="none" xmlns="http://www.w3.org/2000/svg">
<circle cx="3" cy="87" r="3" transform="rotate(90 3 87)" fill="white"/>
<circle cx="3" cy="31" r="3" transform="rotate(90 3 31)" fill="white"/>
<circle cx="3" cy="143" r="3" transform="rotate(90 3 143)" fill="white"/>
<circle cx="3" cy="3" r="3" transform="rotate(90 3 3)" fill="white"/>
<circle cx="3" cy="115" r="3" transform="rotate(90 3 115)" fill="white"/>
<circle cx="3" cy="59" r="3" transform="rotate(90 3 59)" fill="white"/>
<circle cx="3" cy="171" r="3" transform="rotate(90 3 171)" fill="white"/>
<circle cx="59" cy="87" r="3" transform="rotate(90 59 87)" fill="white"/>
<circle cx="59" cy="31" r="3" transform="rotate(90 59 31)" fill="white"/>
<circle cx="59" cy="143" r="3" transform="rotate(90 59 143)" fill="white"/>
<circle cx="59" cy="3" r="3" transform="rotate(90 59 3)" fill="white"/>
<circle cx="59" cy="115" r="3" transform="rotate(90 59 115)" fill="white"/>
<circle cx="59" cy="59" r="3" transform="rotate(90 59 59)" fill="white"/>
<circle cx="59" cy="171" r="3" transform="rotate(90 59 171)" fill="white"/>
<circle cx="115" cy="87" r="3" transform="rotate(90 115 87)" fill="white"/>
<circle cx="115" cy="31" r="3" transform="rotate(90 115 31)" fill="white"/>
<circle cx="115" cy="143" r="3" transform="rotate(90 115 143)" fill="white"/>
<circle cx="115" cy="3" r="3" transform="rotate(90 115 3)" fill="white"/>
<circle cx="115" cy="115" r="3" transform="rotate(90 115 115)" fill="white"/>
<circle cx="115" cy="59" r="3" transform="rotate(90 115 59)" fill="white"/>
<circle cx="115" cy="171" r="3" transform="rotate(90 115 171)" fill="white"/>
<circle cx="171" cy="87" r="3" transform="rotate(90 171 87)" fill="white"/>
<circle cx="171" cy="31" r="3" transform="rotate(90 171 31)" fill="white"/>
<circle cx="171" cy="143" r="3" transform="rotate(90 171 143)" fill="white"/>
<circle cx="171" cy="3" r="3" transform="rotate(90 171 3)" fill="white"/>
<circle cx="171" cy="115" r="3" transform="rotate(90 171 115)" fill="white"/>
<circle cx="171" cy="59" r="3" transform="rotate(90 171 59)" fill="white"/>
<circle cx="171" cy="171" r="3" transform="rotate(90 171 171)" fill="white"/>
<circle cx="31" cy="87" r="3" transform="rotate(90 31 87)" fill="white"/>
<circle cx="31" cy="31" r="3" transform="rotate(90 31 31)" fill="white"/>
<circle cx="31" cy="143" r="3" transform="rotate(90 31 143)" fill="white"/>
<circle cx="31" cy="3" r="3" transform="rotate(90 31 3)" fill="white"/>
<circle cx="31" cy="115" r="3" transform="rotate(90 31 115)" fill="white"/>
<circle cx="31" cy="59" r="3" transform="rotate(90 31 59)" fill="white"/>
<circle cx="31" cy="171" r="3" transform="rotate(90 31 171)" fill="white"/>
<circle cx="87" cy="87" r="3" transform="rotate(90 87 87)" fill="white"/>
<circle cx="87" cy="31" r="3" transform="rotate(90 87 31)" fill="white"/>
<circle cx="87" cy="143" r="3" transform="rotate(90 87 143)" fill="white"/>
<circle cx="87" cy="3" r="3" transform="rotate(90 87 3)" fill="white"/>
<circle cx="87" cy="115" r="3" transform="rotate(90 87 115)" fill="white"/>
<circle cx="87" cy="59" r="3" transform="rotate(90 87 59)" fill="white"/>
<circle cx="87" cy="171" r="3" transform="rotate(90 87 171)" fill="white"/>
<circle cx="143" cy="87" r="3" transform="rotate(90 143 87)" fill="white"/>
<circle cx="143" cy="31" r="3" transform="rotate(90 143 31)" fill="white"/>
<circle cx="143" cy="143" r="3" transform="rotate(90 143 143)" fill="white"/>
<circle cx="143" cy="3" r="3" transform="rotate(90 143 3)" fill="white"/>
<circle cx="143" cy="115" r="3" transform="rotate(90 143 115)" fill="white"/>
<circle cx="143" cy="59" r="3" transform="rotate(90 143 59)" fill="white"/>
<circle cx="143" cy="171" r="3" transform="rotate(90 143 171)" fill="white"/>
<circle cx="199" cy="87" r="3" transform="rotate(90 199 87)" fill="white"/>
<circle cx="199" cy="31" r="3" transform="rotate(90 199 31)" fill="white"/>
<circle cx="199" cy="143" r="3" transform="rotate(90 199 143)" fill="white"/>
<circle cx="199" cy="3" r="3" transform="rotate(90 199 3)" fill="white"/>
<circle cx="199" cy="115" r="3" transform="rotate(90 199 115)" fill="white"/>
<circle cx="199" cy="59" r="3" transform="rotate(90 199 59)" fill="white"/>
<circle cx="199" cy="171" r="3" transform="rotate(90 199 171)" fill="white"/>
</svg>
