<svg width="359" height="400" viewBox="0 0 359 400" fill="none" xmlns="http://www.w3.org/2000/svg">
<path d="M0 0H80V134C80 156.091 62.0914 174 40 174C17.9086 174 0 156.091 0 134V0Z" fill="white" fill-opacity="0.2"/>
<path d="M93 0H173V185C173 207.091 155.091 225 133 225C110.909 225 93 207.091 93 185V0Z" fill="white" fill-opacity="0.2"/>
<path d="M186 0H266V253C266 275.091 248.091 293 226 293C203.909 293 186 275.091 186 253V0Z" fill="white" fill-opacity="0.2"/>
<path d="M279 0H359V360C359 382.091 341.091 400 319 400C296.909 400 279 382.091 279 360V0Z" fill="white" fill-opacity="0.2"/>
</svg>
