<svg width="30" height="30" viewBox="0 0 30 30" fill="none" xmlns="http://www.w3.org/2000/svg">
<path d="M27.7149 2.28799C27.5231 2.09632 27.2801 1.96415 27.015 1.90739C26.7499 1.85063 26.4741 1.8717 26.2207 1.96807L2.78146 10.8397H2.77677C2.50651 10.9437 2.27493 11.1285 2.11366 11.369C1.95238 11.6095 1.86927 11.8939 1.87568 12.1834C1.88209 12.4729 1.97771 12.7533 2.14947 12.9864C2.32124 13.2196 2.56077 13.394 2.83537 13.4858L2.85939 13.4935L10.9043 16.9288C11.0612 16.9764 11.2279 16.9821 11.3877 16.9452C11.5474 16.9083 11.6947 16.8301 11.8149 16.7185L24.7266 4.6874C24.765 4.64893 24.8107 4.61841 24.861 4.59759C24.9113 4.57677 24.9651 4.56605 25.0195 4.56605C25.074 4.56605 25.1278 4.57677 25.1781 4.59759C25.2284 4.61841 25.274 4.64893 25.3125 4.6874C25.351 4.72588 25.3815 4.77155 25.4023 4.82182C25.4231 4.87209 25.4339 4.92596 25.4339 4.98037C25.4339 5.03478 25.4231 5.08866 25.4023 5.13893C25.3815 5.18919 25.351 5.23487 25.3125 5.27334L13.2809 18.1792C13.1692 18.2993 13.0911 18.4466 13.0542 18.6064C13.0172 18.7662 13.0229 18.9328 13.0705 19.0897L16.507 27.1394C16.5106 27.1511 16.5141 27.1616 16.5182 27.1728C16.7057 27.7159 17.1803 28.0991 17.7539 28.1249H17.8125C18.1021 28.1266 18.3855 28.041 18.6258 27.8795C18.8662 27.7179 19.0524 27.4878 19.1602 27.219L28.0307 3.78623C28.1284 3.53269 28.1506 3.25625 28.0946 2.99036C28.0385 2.72447 27.9066 2.48051 27.7149 2.28799Z" fill="white"/>
</svg>
